<svg id="Layer_1" data-name="Layer 1" xmlns="http://www.w3.org/2000/svg" viewBox="0 0 130.59 59.92"><defs><style>.cls-1{fill:#FF9900;}</style></defs><title>brand-logo</title><g id="Symbols"><g id="L-Transaction-header-_-NO-PIC" data-name="L-Transaction-header-+-NO-PIC"><g id="Header"><g id="Service-Vic-logo"><path id="Fill-1" class="cls-1" d="M82.07,0H26.39l8.82,19h4.1l3.37,7.25L46.06,19h4.11L44,32.24H41.37L54.23,59.92,67.39,31.6A6.94,6.94,0,1,1,69.88,22l-3.1,1.86a3.4,3.4,0,0,0-2.86-1.63,3.33,3.33,0,1,0,2.86,5l2,1.23,3-6.36v10.2H82V29H75.46V27.22H80.7V24H75.46V22.16H82V18.84H73.32Zm-27,32.24h-3.8V19h3.8Z"/><path id="Fill-3" class="cls-1" d="M10.38,31.59a3.6,3.6,0,0,0,1.52-3.12,4.45,4.45,0,0,0-.38-1.91,3.13,3.13,0,0,0-1-1.24,6.36,6.36,0,0,0-1.34-.74,9.19,9.19,0,0,0-1.46-.47c-.49-.11-.92-.22-1.32-.32a2.78,2.78,0,0,1-1-.43.73.73,0,0,1-.33-.65c0-.52.36-.83,1-.92a4.79,4.79,0,0,1,2,.16,5.11,5.11,0,0,1,1.52.65l1.82-2.65a8.57,8.57,0,0,0-5-1.41,5.81,5.81,0,0,0-3.7,1.19,3.63,3.63,0,0,0-1.52,3,3.94,3.94,0,0,0,.51,2.05A3.5,3.5,0,0,0,3,26a10.6,10.6,0,0,0,1.64.76,12.52,12.52,0,0,0,1.64.49,4,4,0,0,1,1.25.47.87.87,0,0,1,.49.74.79.79,0,0,1-.45.76,2.22,2.22,0,0,1-1.14.22A9.4,9.4,0,0,1,5,29.3a5.34,5.34,0,0,1-1.28-.4,2.62,2.62,0,0,1-.8-.5L1,31.19a9.54,9.54,0,0,0,5.47,1.48,6.57,6.57,0,0,0,3.9-1.08"/><polygon id="Fill-4" class="cls-1" points="23.6 22.16 23.6 18.84 13.43 18.84 13.43 32.36 23.6 32.36 23.6 29.04 17.11 29.04 17.11 27.22 22.35 27.22 22.35 23.98 17.11 23.98 17.11 22.16 23.6 22.16"/><path id="Fill-5" class="cls-1" d="M32.55,24.84a1.22,1.22,0,0,1-1,.52H29.22V22.16h2.35a1.22,1.22,0,0,1,1,.52,1.67,1.67,0,0,1,0,2.16m4.26-1.08a4.62,4.62,0,0,0-1.48-3.51,5.1,5.1,0,0,0-3.63-1.41H25.53V32.36h3.69V28.68H31l1.68,3.68h4.14l-2.29-4.54a4.8,4.8,0,0,0,2.33-4.06"/><path id="Fill-6" class="cls-1" d="M79.34,39.32a3.69,3.69,0,0,0-1.93-.57c-.76,0-1.3.3-1.3.81s.59.65,1.4.78l.38.06c1.21.2,2.17.72,2.17,1.9,0,1.5-1.32,2.22-2.78,2.22a4.74,4.74,0,0,1-2.87-.89l.71-1.09a3.58,3.58,0,0,0,2.17.73c.75,0,1.34-.3,1.34-.82s-.49-.64-1.44-.79l-.43-.07c-1.2-.19-2.08-.72-2.08-1.94,0-1.42,1.26-2.15,2.71-2.15a4.81,4.81,0,0,1,2.6.72Z"/><path id="Fill-7" class="cls-1" d="M84.32,40.82h-1.7v1.71c0,.59.31.8.7.8a1.81,1.81,0,0,0,.89-.31l.46,1a2.63,2.63,0,0,1-1.56.49c-1.16,0-1.76-.65-1.76-1.87V40.82h-.91V39.7h.91V38.3h1.27v1.4h1.7Z"/><path id="Fill-8" class="cls-1" d="M89.82,44.39H88.58v-.52a1.74,1.74,0,0,1-1.41.63,2.48,2.48,0,0,1,0-4.94,1.74,1.74,0,0,1,1.41.64V39.7h1.24ZM86.19,42a1.22,1.22,0,1,0,1.22-1.29A1.21,1.21,0,0,0,86.19,42Z"/><path id="Fill-9" class="cls-1" d="M94.38,40.82H92.67v1.71c0,.59.31.8.71.8a1.81,1.81,0,0,0,.89-.31l.46,1a2.62,2.62,0,0,1-1.56.49c-1.16,0-1.76-.65-1.76-1.87V40.82h-.91V39.7h.91V38.3h1.27v1.4h1.71Z"/><path id="Fill-10" class="cls-1" d="M99.62,42a4.07,4.07,0,0,1,0,.42H96.26a1.13,1.13,0,0,0,1.21,1A1.92,1.92,0,0,0,98.66,43l.74.81a2.87,2.87,0,0,1-2,.71,2.47,2.47,0,0,1-.06-4.94A2.27,2.27,0,0,1,99.62,42m-3.36-.43h2.08a1,1,0,0,0-2.08,0"/><path id="Fill-11" class="cls-1" d="M80.57,47.25l-1,1A2.22,2.22,0,1,0,77.93,52a1.75,1.75,0,0,0,1.93-1.5H78.13V49.35h3.13c0,.13,0,.26,0,.38A3.29,3.29,0,0,1,78,53.24a3.52,3.52,0,1,1,2.61-6"/><path id="Fill-12" class="cls-1" d="M87,50.77a2.55,2.55,0,1,1-2.55-2.47A2.45,2.45,0,0,1,87,50.77m-3.8,0a1.25,1.25,0,1,0,1.25-1.29,1.23,1.23,0,0,0-1.25,1.29"/><polygon id="Fill-13" class="cls-1" points="90.46 53.12 89 53.12 87.14 48.42 88.52 48.42 89.74 51.78 90.97 48.42 92.31 48.42 90.46 53.12"/><path id="Fill-14" class="cls-1" d="M97.11,50.76a4,4,0,0,1,0,.42H93.74a1.14,1.14,0,0,0,1.21,1,1.89,1.89,0,0,0,1.19-.45l.74.81a2.88,2.88,0,0,1-2,.71,2.47,2.47,0,0,1-.06-4.94,2.27,2.27,0,0,1,2.29,2.47m-3.36-.43h2.08a1,1,0,0,0-1-.94,1,1,0,0,0-1.06.94"/><path id="Fill-15" class="cls-1" d="M101.16,48.4,101,49.65a2.05,2.05,0,0,0-.77-.15.94.94,0,0,0-1,1.05v2.56H97.94v-4.7h1.23v.52a1.48,1.48,0,0,1,1.32-.64,2,2,0,0,1,.66.1"/><path id="Fill-16" class="cls-1" d="M106.28,50.13v3H105V50.53c0-.68-.34-1-.92-1a1,1,0,0,0-1,1.06v2.57h-1.27V48.42h1.23V49a1.58,1.58,0,0,1,1.39-.68,1.75,1.75,0,0,1,1.83,1.83"/><path id="Fill-17" class="cls-1" d="M115,50.13v3h-1.26V50.53c0-.68-.34-1-.92-1a1,1,0,0,0-1,1.06v2.57h-1.26V50.53c0-.68-.34-1-.92-1a1,1,0,0,0-1,1.06v2.57h-1.27V48.42h1.24V49a1.57,1.57,0,0,1,1.38-.68,1.79,1.79,0,0,1,1.56.8,1.9,1.9,0,0,1,3.45,1"/><path id="Fill-18" class="cls-1" d="M120.48,50.76a3.41,3.41,0,0,1,0,.42h-3.34a1.14,1.14,0,0,0,1.21,1,1.9,1.9,0,0,0,1.19-.45l.74.81a2.88,2.88,0,0,1-2,.71,2.47,2.47,0,0,1-.06-4.94,2.27,2.27,0,0,1,2.29,2.47m-3.36-.43h2.08a1,1,0,0,0-2.08,0"/><path id="Fill-19" class="cls-1" d="M125.77,50.13v3h-1.27V50.53c0-.68-.34-1-.92-1a1,1,0,0,0-1,1.06v2.57h-1.27V48.42h1.23V49a1.58,1.58,0,0,1,1.39-.68,1.75,1.75,0,0,1,1.83,1.83"/><path id="Fill-20" class="cls-1" d="M130.24,49.54h-1.7v1.72c0,.58.31.8.7.8a1.82,1.82,0,0,0,.89-.31l.46,1a2.63,2.63,0,0,1-1.56.5c-1.16,0-1.76-.66-1.76-1.87V49.54h-.91V48.42h.91V47h1.27v1.4h1.7Z"/></g></g></g></g></svg>
